# xmcd
#
# Track frame offsets:
#	150
#	14892
#	33446
#	48362
#	65792
#	79564
#	96715
#	115240
#	133610
#	149780
#	168246
#	184994
#
# Disc length: 2729 seconds
#
# Revision: 0
# Processed by: cddbd v1.5.2PL0 Copyright (c) Steve Scherf et al.
# Submitted via: SynApp - FreeCDDB Version: 2.4
#
DISCID=b70aa70c
DTITLE=Katie Melua - Pictures
DYEAR=2007
DGENRE=Blues - Other
TTITLE0=Mary Pickfort
TTITLE1=It's All In My Head
TTITLE2=If The Lights Go Out
TTITLE3=What I Miss About You
TTITLE4=Spellbound
TTITLE5=What It Says On The Tin
TTITLE6=Scary Films
TTITLE7=Perfect Circle
TTITLE8=Ghost Town
TTITLE9=If You Were A Sailboat
TTITLE10=Dirty Dice
TTITLE11=In My Secret Life
EXTD=
EXTT0=
EXTT1=
EXTT2=
EXTT3=
EXTT4=
EXTT5=
EXTT6=
EXTT7=
EXTT8=
EXTT9=
EXTT10=
EXTT11=
PLAYORDER=
